<?xml version="1.0" standalone="no"?>
<svg xmlns:xlink="http://www.w3.org/1999/xlink" id="wave" style="transform:rotate(0deg); transition: 0.3s" viewBox="0 0 1440 320" version="1.1" xmlns="http://www.w3.org/2000/svg"><defs><linearGradient id="sw-gradient-0" x1="0" x2="0" y1="1" y2="0"><stop stop-color="rgba(144, 85, 255, 1)" offset="0%"/><stop stop-color="rgba(19, 226, 218, 1)" offset="100%"/></linearGradient></defs><path style="transform:translate(0, 0px); opacity:1" fill="url(#sw-gradient-0)" d="M0,192L26.7,186.7C53.3,181,107,171,160,144C213.3,117,267,75,320,80C373.3,85,427,139,480,181.3C533.3,224,587,256,640,229.3C693.3,203,747,117,800,74.7C853.3,32,907,32,960,69.3C1013.3,107,1067,181,1120,202.7C1173.3,224,1227,192,1280,181.3C1333.3,171,1387,181,1440,202.7C1493.3,224,1547,256,1600,266.7C1653.3,277,1707,267,1760,229.3C1813.3,192,1867,128,1920,122.7C1973.3,117,2027,171,2080,170.7C2133.3,171,2187,117,2240,90.7C2293.3,64,2347,64,2400,69.3C2453.3,75,2507,85,2560,96C2613.3,107,2667,117,2720,128C2773.3,139,2827,149,2880,144C2933.3,139,2987,117,3040,96C3093.3,75,3147,53,3200,74.7C3253.3,96,3307,160,3360,192C3413.3,224,3467,224,3520,197.3C3573.3,171,3627,117,3680,90.7C3733.3,64,3787,64,3813,64L3840,64L3840,320L3813.3,320C3786.7,320,3733,320,3680,320C3626.7,320,3573,320,3520,320C3466.7,320,3413,320,3360,320C3306.7,320,3253,320,3200,320C3146.7,320,3093,320,3040,320C2986.7,320,2933,320,2880,320C2826.7,320,2773,320,2720,320C2666.7,320,2613,320,2560,320C2506.7,320,2453,320,2400,320C2346.7,320,2293,320,2240,320C2186.7,320,2133,320,2080,320C2026.7,320,1973,320,1920,320C1866.7,320,1813,320,1760,320C1706.7,320,1653,320,1600,320C1546.7,320,1493,320,1440,320C1386.7,320,1333,320,1280,320C1226.7,320,1173,320,1120,320C1066.7,320,1013,320,960,320C906.7,320,853,320,800,320C746.7,320,693,320,640,320C586.7,320,533,320,480,320C426.7,320,373,320,320,320C266.7,320,213,320,160,320C106.7,320,53,320,27,320L0,320Z"/></svg>