<?xml version="1.0" standalone="no"?>
<svg xmlns:xlink="http://www.w3.org/1999/xlink" id="wave" style="transform:rotate(180deg); transition: 0.3s" viewBox="0 0 1440 310" version="1.1" xmlns="http://www.w3.org/2000/svg"><defs><linearGradient id="sw-gradient-0" x1="0" x2="0" y1="1" y2="0"><stop stop-color="rgba(144, 85, 255, 1)" offset="0%"/><stop stop-color="rgba(19, 226, 218, 1)" offset="100%"/></linearGradient></defs><path style="transform:translate(0, 0px); opacity:1" fill="url(#sw-gradient-0)" d="M0,186L40,180.8C80,176,160,165,240,139.5C320,114,400,72,480,77.5C560,83,640,134,720,175.7C800,217,880,248,960,222.2C1040,196,1120,114,1200,72.3C1280,31,1360,31,1440,67.2C1520,103,1600,176,1680,196.3C1760,217,1840,186,1920,175.7C2000,165,2080,176,2160,196.3C2240,217,2320,248,2400,258.3C2480,269,2560,258,2640,222.2C2720,186,2800,124,2880,118.8C2960,114,3040,165,3120,165.3C3200,165,3280,114,3360,87.8C3440,62,3520,62,3600,67.2C3680,72,3760,83,3840,93C3920,103,4000,114,4080,124C4160,134,4240,145,4320,139.5C4400,134,4480,114,4560,93C4640,72,4720,52,4800,72.3C4880,93,4960,155,5040,186C5120,217,5200,217,5280,191.2C5360,165,5440,114,5520,87.8C5600,62,5680,62,5720,62L5760,62L5760,310L5720,310C5680,310,5600,310,5520,310C5440,310,5360,310,5280,310C5200,310,5120,310,5040,310C4960,310,4880,310,4800,310C4720,310,4640,310,4560,310C4480,310,4400,310,4320,310C4240,310,4160,310,4080,310C4000,310,3920,310,3840,310C3760,310,3680,310,3600,310C3520,310,3440,310,3360,310C3280,310,3200,310,3120,310C3040,310,2960,310,2880,310C2800,310,2720,310,2640,310C2560,310,2480,310,2400,310C2320,310,2240,310,2160,310C2080,310,2000,310,1920,310C1840,310,1760,310,1680,310C1600,310,1520,310,1440,310C1360,310,1280,310,1200,310C1120,310,1040,310,960,310C880,310,800,310,720,310C640,310,560,310,480,310C400,310,320,310,240,310C160,310,80,310,40,310L0,310Z"/></svg>